<svg width="296" height="335" viewBox="0 0 296 335" fill="none" xmlns="http://www.w3.org/2000/svg">
<path d="M147.995 24.1194C125.52 24.1194 106.159 16.1028 96.9991 4.51228V72.5899H198.991V4.51311C189.831 16.1028 170.471 24.1194 147.995 24.1194Z" fill="#D5DCEC"/>
<path d="M280.168 43.1249L198.796 16.9549L147.995 58.7413L97.1953 16.9557L15.8234 43.1258C6.89618 45.9963 0.674713 55.8591 0.674713 67.1405V209.409C0.674713 229.981 14.3208 246.658 31.1552 246.658H46.3954V259.076C46.3954 269.362 53.2185 277.7 61.6357 277.7H234.357C242.773 277.7 249.598 269.361 249.597 259.074V246.658H264.837C281.671 246.658 295.318 229.981 295.318 209.409V67.1405C295.316 55.8591 289.095 45.9963 280.168 43.1249Z" fill="#EFF2FA"/>
<path d="M221.656 110.079H186.096C184.693 110.079 183.556 111.468 183.556 113.182V128.704H224.196V113.182C224.196 111.468 223.059 110.079 221.656 110.079Z" fill="#5B5D6E"/>
<path d="M71.7947 122.495H112.436C115.24 122.495 117.515 125.275 117.515 128.704V172.16C117.515 179.018 112.967 184.577 107.356 184.577H76.8752C71.2635 184.577 66.7148 179.018 66.7148 172.16V128.704C66.7148 125.274 68.9892 122.495 71.7947 122.495Z" fill="#E4EAF6"/>
<path d="M161.087 121.652L151.892 65.473H144.097L134.903 121.652C133.239 131.818 132.168 142.116 131.697 152.468L124.706 306.268C124.644 307.62 125.057 308.941 125.841 309.9L145.238 333.605C146.761 335.465 149.228 335.465 150.75 333.605L170.148 309.9C170.932 308.941 171.345 307.62 171.283 306.268L164.291 152.468C163.821 142.116 162.751 131.819 161.087 121.652Z" fill="#5B5D6E"/>
<path d="M127.322 248.739L126.673 263.002L167.073 213.632L166.493 200.87L127.322 248.739Z" fill="#707487"/>
<path d="M125.947 279L125.298 293.264L168.304 240.706L167.725 227.944L125.947 279Z" fill="#707487"/>
<path d="M128.697 218.479L128.048 232.743L165.842 186.557L165.262 173.795L128.697 218.479Z" fill="#707487"/>
<path d="M170.185 282.094L136.637 323.092L142.149 329.827L170.765 294.856L170.185 282.094Z" fill="#707487"/>
<path d="M125.136 308.569C125.324 309.046 125.529 309.517 125.842 309.9L130.456 315.538L169.535 267.782L168.955 255.02L125.136 308.569Z" fill="#707487"/>
<path d="M131.449 157.96L130.8 172.223L162.693 133.248C162.236 129.393 161.722 125.549 161.098 121.726L131.449 157.96Z" fill="#707487"/>
<path d="M140.033 90.3123L137.277 107.15L155.141 85.319L153.303 74.0944L140.033 90.3123Z" fill="#707487"/>
<path d="M163.953 146.816L130.073 188.219L129.425 202.483L164.612 159.482L164.293 152.468C164.207 150.581 164.079 148.698 163.953 146.816Z" fill="#707487"/>
<path d="M134.268 125.937C133.503 131.145 132.893 136.382 132.438 141.643L159.039 109.137L157.202 97.9111L134.268 125.937Z" fill="#707487"/>
<path d="M156.247 92.0792L151.893 65.473H144.098L139.743 92.0792H156.247Z" fill="#515262"/>
<path d="M155.141 85.319L153.303 74.0944L140.033 90.3123L139.743 92.0792H149.609L155.141 85.319Z" fill="#5B5D6E"/>
<path d="M154.934 58.7379H141.057C138.598 58.7379 136.753 61.4881 137.235 64.4354L139.573 78.7251C139.938 80.9523 141.537 82.5538 143.396 82.5538H152.596C154.454 82.5538 156.054 80.9515 156.418 78.7251L158.757 64.4354C159.238 61.4873 157.393 58.7379 154.934 58.7379Z" fill="#5B5D6E"/>
<path d="M145.712 58.7379H141.057C139.301 58.7379 137.898 60.1648 137.393 62.0403L153.937 82.2597C155.182 81.7017 156.146 80.3876 156.418 78.7243L157.359 72.9708L145.712 58.7379Z" fill="#707487"/>
<path d="M96.2041 1.77881L147.995 58.7421C147.995 58.7421 133.491 67.6893 115.592 85.7258C111.899 89.4459 106.315 87.9388 104.333 82.6148L80.0013 17.1955L87.6987 3.08372C89.6149 -0.429181 93.6358 -1.04655 96.2041 1.77881Z" fill="#E4EAF6"/>
<path d="M199.787 1.77881L147.995 58.7421C147.995 58.7421 162.5 67.6893 180.399 85.7258C184.092 89.4459 189.677 87.9388 191.657 82.6148L215.99 17.1955L208.292 3.08372C206.376 -0.429181 202.355 -1.04655 199.787 1.77881Z" fill="#E4EAF6"/>
<path d="M66.7148 147.327L86.888 162.119C90.105 164.477 94.1246 164.477 97.3423 162.119L117.515 147.327V172.16C117.515 179.017 112.967 184.576 107.355 184.576H76.8745C71.2629 184.576 66.7148 179.017 66.7148 172.16V147.327Z" fill="#D5DCEC"/>
<path d="M95.9259 153.531C95.9259 156.103 94.2196 158.188 92.1155 158.188C90.0113 158.188 88.3051 156.103 88.3051 153.531C88.3051 150.96 90.0113 148.875 92.1155 148.875C94.2196 148.875 95.9259 150.96 95.9259 153.531Z" fill="#AFB9D2"/>
<path d="M219.116 97.6614H216.576C215.173 97.6614 214.035 99.0515 214.035 100.766V128.703H221.656V100.766C221.656 99.0523 220.519 97.6614 219.116 97.6614Z" fill="#707487"/>
<path d="M183.556 122.495H224.196C227.002 122.495 229.276 125.275 229.276 128.704V172.16C229.276 179.018 224.728 184.577 219.117 184.577H188.636C183.024 184.577 178.476 179.018 178.476 172.16V128.704C178.476 125.274 180.75 122.495 183.556 122.495Z" fill="#E4EAF6"/>
<path d="M178.476 134.906H229.276V147.323H178.476V134.906Z" fill="#D5DCEC"/>
<path d="M221.656 103.87C220.253 103.87 219.116 105.259 219.116 106.975V138.015C219.116 139.73 220.253 141.119 221.656 141.119C223.059 141.119 224.196 139.73 224.196 138.015V106.975C224.196 105.259 223.059 103.87 221.656 103.87Z" fill="#AFB9D2"/>
<path d="M40.4433 96.597L4.51998 52.6962C2.10413 56.809 0.674713 61.8006 0.674713 67.1405V209.409C0.674713 229.981 14.3208 246.658 31.1552 246.658H46.3954V114.156C46.3948 107.57 44.253 101.254 40.4433 96.597Z" fill="#E4EAF6"/>
<path d="M255.547 96.597L291.47 52.6962C293.886 56.809 295.316 61.8005 295.316 67.1397V209.408C295.316 229.98 281.67 246.658 264.835 246.658H249.595V114.156C249.596 107.57 251.737 101.254 255.547 96.597Z" fill="#E4EAF6"/>
</svg>
