<svg width="290" height="364" viewBox="0 0 290 364" fill="none" xmlns="http://www.w3.org/2000/svg">
<path d="M264.98 1.85643C262.158 -0.588203 257.992 -0.620879 255.137 1.77291L185.119 60.5039C183.375 61.9645 182.387 64.1304 182.409 66.4026C182.443 68.6738 183.487 70.818 185.264 72.2341L207.637 90.1127C208.992 91.1911 210.658 91.7685 212.37 91.7685C212.802 91.7685 213.224 91.7349 213.658 91.6632C215.79 91.291 217.668 90.0301 218.812 88.1909L266.446 11.5868C268.412 8.42144 267.79 4.29379 264.98 1.85643Z" fill="#D770AD"/>
<path d="M139.297 55.8879C138.03 53.4387 135.519 51.8664 132.764 51.7884C132.764 51.7884 132.631 51.7829 132.365 51.7829C130.476 51.7829 123.522 51.9881 113.525 54.6043C100.583 57.9985 88.0421 63.9244 76.2556 72.2232C60.2479 83.4978 46.1294 98.8836 34.2766 117.957C19.8131 141.246 8.68289 170.212 1.1729 204.037C0.672715 206.304 1.23921 208.68 2.71706 210.48C4.19401 212.279 6.4053 213.289 8.74916 213.256H9.3819C15.5584 213.256 24.2566 214.044 30.1435 216.256C31.0213 216.589 31.9209 216.745 32.8215 216.745C35.2979 216.745 37.698 215.522 39.1314 213.367L138.897 63.5749C140.419 61.2755 140.563 58.3316 139.297 55.8879Z" fill="#E6E9ED"/>
<path d="M172.034 364C171.667 364 171.289 363.978 170.912 363.923C168.112 363.5 167.065 360.652 164.857 358.879C138.543 337.749 94.0461 339.256 78.1601 318.628C65.4413 302.109 99.9276 257.558 83.309 245.139C54.8821 223.899 30.877 216.501 30.6319 216.423C28.6657 215.834 27.0217 214.467 26.0776 212.636C25.1453 210.814 24.9783 208.681 25.6337 206.737C27.0108 202.682 59.559 107.109 88.7075 77.9494C111.203 55.4549 134.863 49.9783 146.028 48.662L153.082 12.4429C153.493 10.3042 154.815 8.44866 156.692 7.34935C158.57 6.24913 160.824 6.00495 162.901 6.68759C163.712 6.95448 171.044 9.55342 178.854 18.3688C188.218 28.9443 194.339 43.6911 197.094 62.2314C203.525 67.275 221.61 81.5996 239.739 97.2342C253.014 108.687 263.746 118.618 271.621 126.755C286.006 141.601 288.573 148.133 289.195 152.16C291.04 163.952 286.807 175.388 282.93 182.909C279.075 190.385 273.709 197.527 270.155 199.882C268.078 201.27 263.746 202.915 257.88 198.627C255.57 200.404 245.061 207.947 234.274 207.947C232.374 207.947 230.452 207.714 228.575 207.169C221.843 205.214 216.666 198.204 212.734 185.74C211.757 182.618 210.979 179.574 210.402 177.031C203.748 177.086 193.15 176.575 182.264 173.666L177.477 198.248C184.242 208.557 206.926 245.705 206.926 280.585C206.926 320.766 179.343 359.256 178.177 360.866C176.733 362.856 174.445 364 172.034 364Z" fill="#EC87C0"/>
<path d="M199.338 98.5831C199.338 102.772 195.94 106.165 191.751 106.165C187.563 106.165 184.175 102.772 184.175 98.5831C184.175 94.3946 187.564 91.0014 191.751 91.0014C195.939 91.0014 199.338 94.3956 199.338 98.5831Z" fill="#434A54"/>
<path d="M247.683 182.531L252.782 202.038L257.881 198.627L247.683 182.531Z" fill="#D770AD"/>
<path d="M153.361 165.313C153.361 165.313 167.891 182.054 180.532 182.531L182.265 173.666L153.361 165.313Z" fill="#D770AD"/>
<path d="M146.029 48.662L136.109 50.4894L144.196 77.039L146.029 48.662Z" fill="#D770AD"/>
</svg>
